# xmcd
#
# Track frame offsets:
#	150
#	5023
#	29499
#	46469
#	68512
#	107294
#	149081
#	172010
#	199275
#	229918
#	251099
#
# Disc length: 3444 seconds
#
# Revision: 1
# Processed by: cddbd v1.5.1PL2 Copyright (c) Steve Scherf et al.
# Submitted via: EasyCDDAExtractor 9.0.0.1
#
DISCID=9e0d720b
DTITLE=Guns and Roses - Parque da Bela Vista Rock in Rio Lisboa 28-05-06 Disc 1
DYEAR=2006
DGENRE=Hard Rock
TTITLE0=Intro
TTITLE1=Welcome To The Jungle
TTITLE2=It's So Easy
TTITLE3=Mr Brownstone
TTITLE4=Robin Solo - Sweet Child O' Mine
TTITLE5=Knockin' On Heaven's Door
TTITLE6=Dizzy Solo (Intro) - Live And Let Die
TTITLE7=Rocket Queen
TTITLE8=Richard Solo/ Beautiful (Intro w - Robin)
TTITLE9=Outta Get Me
TTITLE10=Axl Piano Solo
EXTD=
EXTT0=
EXTT1=
EXTT2=
EXTT3=
EXTT4=
EXTT5=
EXTT6=
EXTT7=
EXTT8=
EXTT9=
EXTT10=
PLAYORDER=
